<svg width="171" height="120" viewBox="0 0 171 120" fill="none" xmlns="http://www.w3.org/2000/svg">
<g id="mel ">
<path id="s" d="M146.896 102.768C143.653 102.768 140.837 102.277 138.448 101.296C136.059 100.272 134.203 98.8 132.88 96.88L137.232 93.04C139.579 96.0267 142.971 97.52 147.408 97.52C149.925 97.52 151.888 97.072 153.296 96.176C154.747 95.28 155.472 94 155.472 92.336C155.472 91.056 155.067 90.1813 154.256 89.712C153.488 89.2 152.507 88.8373 151.312 88.624L146.512 87.792C145.275 87.5787 144.08 87.28 142.928 86.896C141.819 86.512 140.837 86 139.984 85.36C139.131 84.6773 138.427 83.824 137.872 82.8C137.36 81.776 137.104 80.5173 137.104 79.024C137.104 77.232 137.467 75.6747 138.192 74.352C138.96 72.9867 139.984 71.856 141.264 70.96C142.587 70.0213 144.123 69.3387 145.872 68.912C147.621 68.4427 149.52 68.208 151.568 68.208C154.512 68.208 157.051 68.656 159.184 69.552C161.36 70.4053 163.067 71.5787 164.304 73.072L160.08 77.104C159.44 76.208 158.395 75.376 156.944 74.608C155.493 73.84 153.573 73.456 151.184 73.456C148.795 73.456 146.96 73.8827 145.68 74.736C144.443 75.5893 143.824 76.784 143.824 78.32C143.824 79.6427 144.229 80.5387 145.04 81.008C145.893 81.4773 146.917 81.8187 148.112 82.032L152.912 82.928C154.107 83.1413 155.259 83.44 156.368 83.824C157.477 84.1653 158.459 84.656 159.312 85.296C160.208 85.8933 160.912 86.704 161.424 87.728C161.979 88.7093 162.256 89.9467 162.256 91.44C162.256 93.1893 161.893 94.768 161.168 96.176C160.443 97.584 159.397 98.7787 158.032 99.76C156.709 100.741 155.088 101.488 153.168 102C151.291 102.512 149.2 102.768 146.896 102.768Z" fill="#B57BFF"/>
<path id="e" d="M114.856 103.768C110.333 103.768 106.92 102.573 104.616 100.184C102.355 97.7947 101.224 94.2747 101.224 89.624C101.224 86.5947 101.672 83.8427 102.568 81.368C103.507 78.8507 104.787 76.696 106.408 74.904C108.072 73.112 110.035 71.7253 112.296 70.744C114.6 69.72 117.139 69.208 119.912 69.208C121.576 69.208 123.112 69.4 124.52 69.784C125.928 70.168 127.144 70.744 128.168 71.512C129.235 72.2373 130.067 73.176 130.664 74.328C131.261 75.4373 131.56 76.7173 131.56 78.168C131.56 79.4053 131.283 80.664 130.728 81.944C130.216 83.224 129.128 84.3973 127.464 85.464C125.8 86.5307 123.432 87.4267 120.36 88.152C117.288 88.8773 113.235 89.3253 108.2 89.496C108.157 89.7947 108.136 90.072 108.136 90.328C108.136 90.5413 108.136 90.6907 108.136 90.776C108.136 91.8 108.243 92.7813 108.456 93.72C108.712 94.616 109.117 95.4053 109.672 96.088C110.227 96.7707 110.973 97.304 111.912 97.688C112.893 98.072 114.131 98.264 115.624 98.264C116.691 98.264 117.651 98.1573 118.504 97.944C119.4 97.688 120.232 97.304 121 96.792C121.811 96.28 122.6 95.6187 123.368 94.808C124.179 93.9547 125.032 92.9093 125.928 91.672L130.408 94.552C129.512 95.96 128.552 97.24 127.528 98.392C126.504 99.5013 125.352 100.461 124.072 101.272C122.835 102.04 121.448 102.637 119.912 103.064C118.419 103.533 116.733 103.768 114.856 103.768ZM119.272 74.392C116.456 74.392 114.152 75.224 112.36 76.888C110.568 78.552 109.395 81.0907 108.84 84.504L108.712 85.208C112.296 85.08 115.133 84.8027 117.224 84.376C119.357 83.9067 120.979 83.3733 122.088 82.776C123.24 82.136 123.965 81.4533 124.264 80.728C124.605 80.0027 124.776 79.2987 124.776 78.616C124.776 77.3787 124.349 76.376 123.496 75.608C122.685 74.7973 121.277 74.392 119.272 74.392Z" fill="#B57BFF"/>
<path id="n" d="M66.88 104L72.384 70.976H79.232L77.888 78.784H78.208C79.4453 76.1387 80.896 74.048 82.56 72.512C84.224 70.976 86.4 70.208 89.088 70.208C92.032 70.208 94.2507 71.104 95.744 72.896C97.28 74.6453 98.048 76.928 98.048 79.744C98.048 80.512 98.0053 81.3227 97.92 82.176C97.8773 82.9867 97.7493 83.9467 97.536 85.056L94.4 104H87.552L90.752 84.8C90.8373 84.2027 90.9227 83.584 91.008 82.944C91.0933 82.2613 91.136 81.6427 91.136 81.088C91.136 79.5947 90.752 78.336 89.984 77.312C89.2587 76.288 88.0427 75.776 86.336 75.776C85.056 75.776 83.904 76.0747 82.88 76.672C81.8987 77.2693 80.9813 78.08 80.128 79.104C79.7013 79.616 79.0827 80.512 78.272 81.792C77.504 83.072 76.9707 84.5867 76.672 86.336L73.728 104H66.88Z" fill="#B57BFF"/>
<path id="o" d="M46.96 105.768C44.784 105.768 42.864 105.427 41.2 104.744C39.536 104.061 38.128 103.123 36.976 101.928C35.8667 100.691 35.0133 99.2187 34.416 97.512C33.8187 95.7627 33.52 93.8213 33.52 91.688C33.52 88.5307 33.968 85.6933 34.864 83.176C35.76 80.6587 36.9973 78.5253 38.576 76.776C40.1973 74.984 42.096 73.6187 44.272 72.68C46.4907 71.6987 48.88 71.208 51.44 71.208C53.616 71.208 55.536 71.5493 57.2 72.232C58.864 72.9147 60.2507 73.8747 61.36 75.112C62.512 76.3067 63.3867 77.7787 63.984 79.528C64.5813 81.2773 64.88 83.1973 64.88 85.288C64.88 88.4453 64.432 91.2827 63.536 93.8C62.64 96.3173 61.3813 98.472 59.76 100.264C58.1813 102.013 56.2827 103.379 54.064 104.36C51.888 105.299 49.52 105.768 46.96 105.768ZM47.408 100.328C50.096 100.328 52.2507 99.5173 53.872 97.896C55.4933 96.232 56.5387 93.9493 57.008 91.048L57.712 86.824C57.7973 86.2267 57.8613 85.672 57.904 85.16C57.9893 84.648 58.032 84.2 58.032 83.816C58.032 81.384 57.392 79.592 56.112 78.44C54.8747 77.2453 53.168 76.648 50.992 76.648C48.304 76.648 46.1493 77.48 44.528 79.144C42.9067 80.7653 41.8613 83.0267 41.392 85.928L40.688 90.152C40.6027 90.7493 40.5173 91.304 40.432 91.816C40.3893 92.328 40.368 92.776 40.368 93.16C40.368 95.592 40.9867 97.4053 42.224 98.6C43.504 99.752 45.232 100.328 47.408 100.328Z" fill="#B57BFF"/>
<path id="j" d="M16.064 119.568C15.168 119.568 14.336 119.419 13.568 119.12C12.8 118.821 12.0107 118.331 11.2 117.648C10.432 116.965 9.6 116.091 8.704 115.024C7.808 114 6.76267 112.72 5.568 111.184L2.304 107.216L6.912 103.568L15.872 114L16.832 113.68L22.72 78.544H9.728L10.624 72.976H30.464L24.128 110.992C23.6587 113.68 22.784 115.771 21.504 117.264C20.2667 118.8 18.4533 119.568 16.064 119.568ZM28.288 66.896C26.6667 66.896 25.536 66.5973 24.896 66C24.256 65.36 23.936 64.6133 23.936 63.76C23.936 63.504 23.9573 63.2053 24 62.864C24.0427 62.5227 24.1067 62.16 24.192 61.776C24.4053 60.624 24.8747 59.728 25.6 59.088C26.368 58.4053 27.5627 58.064 29.184 58.064C30.8053 58.064 31.936 58.384 32.576 59.024C33.216 59.6213 33.536 60.3467 33.536 61.2C33.536 61.456 33.5147 61.7547 33.472 62.096C33.4293 62.4373 33.3653 62.8 33.28 63.184C33.0667 64.336 32.576 65.2533 31.808 65.936C31.0827 66.576 29.9093 66.896 28.288 66.896Z" fill="#B57BFF"/>
<path id="l" d="M114.512 47.768C112.379 47.768 110.821 47.2347 109.84 46.168C108.901 45.1013 108.432 43.672 108.432 41.88C108.432 41.0267 108.56 39.9173 108.816 38.552L115.216 5.208H104.336L105.296 -0.360001H123.152L115.024 41.752L116.368 42.2L127.76 31.896L131.6 35.416L126.096 40.792C124.731 42.1147 123.515 43.224 122.448 44.12C121.381 45.016 120.4 45.7413 119.504 46.296C118.608 46.808 117.755 47.1707 116.944 47.384C116.133 47.64 115.323 47.768 114.512 47.768Z" fill="#B57BFF"/>
<path id="e_2" d="M87.856 47.768C83.3333 47.768 79.92 46.5733 77.616 44.184C75.3547 41.7947 74.224 38.2747 74.224 33.624C74.224 30.5947 74.672 27.8427 75.568 25.368C76.5067 22.8507 77.7867 20.696 79.408 18.904C81.072 17.112 83.0347 15.7253 85.296 14.744C87.6 13.72 90.1387 13.208 92.912 13.208C94.576 13.208 96.112 13.4 97.52 13.784C98.928 14.168 100.144 14.744 101.168 15.512C102.235 16.2373 103.067 17.176 103.664 18.328C104.261 19.4373 104.56 20.7173 104.56 22.168C104.56 23.4053 104.283 24.664 103.728 25.944C103.216 27.224 102.128 28.3973 100.464 29.464C98.8 30.5307 96.432 31.4267 93.36 32.152C90.288 32.8773 86.2347 33.3253 81.2 33.496C81.1573 33.7947 81.136 34.072 81.136 34.328C81.136 34.5413 81.136 34.6907 81.136 34.776C81.136 35.8 81.2427 36.7813 81.456 37.72C81.712 38.616 82.1173 39.4053 82.672 40.088C83.2267 40.7707 83.9733 41.304 84.912 41.688C85.8933 42.072 87.1307 42.264 88.624 42.264C89.6907 42.264 90.6507 42.1573 91.504 41.944C92.4 41.688 93.232 41.304 94 40.792C94.8107 40.28 95.6 39.6187 96.368 38.808C97.1787 37.9547 98.032 36.9093 98.928 35.672L103.408 38.552C102.512 39.96 101.552 41.24 100.528 42.392C99.504 43.5013 98.352 44.4613 97.072 45.272C95.8347 46.04 94.448 46.6373 92.912 47.064C91.4187 47.5333 89.7333 47.768 87.856 47.768ZM92.272 18.392C89.456 18.392 87.152 19.224 85.36 20.888C83.568 22.552 82.3947 25.0907 81.84 28.504L81.712 29.208C85.296 29.08 88.1333 28.8027 90.224 28.376C92.3573 27.9067 93.9787 27.3733 95.088 26.776C96.24 26.136 96.9653 25.4533 97.264 24.728C97.6053 24.0027 97.776 23.2987 97.776 22.616C97.776 21.3787 97.3493 20.376 96.496 19.608C95.6853 18.7973 94.2773 18.392 92.272 18.392Z" fill="#B57BFF"/>
<path id="m" d="M34.128 49L39.632 15.976H45.456L44.56 21.416H44.88C45.648 19.624 46.5867 18.152 47.696 17C48.848 15.8053 50.32 15.208 52.112 15.208C53.904 15.208 55.2267 15.784 56.08 16.936C56.976 18.088 57.3387 19.6453 57.168 21.608H57.424C58.2347 19.688 59.2587 18.152 60.496 17C61.776 15.8053 63.3973 15.208 65.36 15.208C67.2373 15.208 68.6453 15.7413 69.584 16.808C70.5653 17.8747 71.056 19.432 71.056 21.48C71.056 22.12 71.0133 22.9093 70.928 23.848C70.8427 24.744 70.736 25.576 70.608 26.344L66.832 49H61.008L64.656 27.176C64.7413 26.5787 64.8267 25.9387 64.912 25.256C64.9973 24.5733 65.04 24.0187 65.04 23.592C65.04 21.5013 64.208 20.456 62.544 20.456C61.0933 20.456 59.8773 21.2453 58.896 22.824C58.4267 23.592 58 24.4453 57.616 25.384C57.232 26.28 56.9547 27.2187 56.784 28.2L53.328 49H47.504L51.216 26.856C51.3013 26.2587 51.3653 25.704 51.408 25.192C51.4933 24.6373 51.536 24.1253 51.536 23.656C51.536 21.5227 50.768 20.456 49.232 20.456C47.7813 20.456 46.5227 21.2453 45.456 22.824C44.9013 23.6347 44.4747 24.488 44.176 25.384C43.8773 26.2373 43.6427 27.0693 43.472 27.88L39.952 49H34.128Z" fill="#B57BFF"/>
</g>
</svg>
