<svg width="154" height="80" viewBox="0 0 154 80" fill="none" xmlns="http://www.w3.org/2000/svg">
<path d="M33.028 33V6.182L21.114 26.928H19.228L7.314 6.182V33H4.094V0.339998H7.406L20.148 22.696L32.982 0.339998H36.248V33H33.028ZM68.3758 30.148V33H46.4338V0.339998H67.9618V3.192H49.6538V14.968H65.6158V17.682H49.6538V30.148H68.3758ZM76.4651 33V0.339998H79.6851V30.148H98.5451V33H76.4651ZM1.564 74.906C2.23867 75.366 3.09733 75.7647 4.14 76.102C5.21333 76.4393 6.40933 76.608 7.728 76.608C9.384 76.608 10.7027 76.3167 11.684 75.734C12.696 75.1207 13.4627 74.2313 13.984 73.066C14.5053 71.9007 14.8427 70.4747 14.996 68.788C15.1493 67.0707 15.226 65.1233 15.226 62.946V46.34H18.446V62.946C18.446 65.43 18.3233 67.6993 18.078 69.754C17.8633 71.778 17.388 73.5107 16.652 74.952C15.916 76.3933 14.8427 77.5127 13.432 78.31C12.0213 79.1073 10.12 79.506 7.728 79.506C4.968 79.506 2.60667 78.8313 0.644 77.482L1.564 74.906ZM41.3965 79.23C39.1272 79.23 37.0418 78.77 35.1405 77.85C33.2698 76.8993 31.6598 75.6573 30.3105 74.124C28.9612 72.56 27.9185 70.7813 27.1825 68.788C26.4465 66.7947 26.0785 64.7553 26.0785 62.67C26.0785 60.4927 26.4618 58.4073 27.2285 56.414C28.0258 54.4207 29.1145 52.6573 30.4945 51.124C31.8745 49.5907 33.4998 48.3793 35.3705 47.49C37.2412 46.57 39.2652 46.11 41.4425 46.11C43.7118 46.11 45.7818 46.6007 47.6525 47.582C49.5538 48.5327 51.1638 49.79 52.4825 51.354C53.8318 52.918 54.8745 54.6967 55.6105 56.69C56.3465 58.6527 56.7145 60.6613 56.7145 62.716C56.7145 64.8933 56.3158 66.9787 55.5185 68.972C54.7518 70.9653 53.6785 72.7287 52.2985 74.262C50.9492 75.7647 49.3392 76.976 47.4685 77.896C45.5978 78.7853 43.5738 79.23 41.3965 79.23ZM29.2985 62.67C29.2985 64.4487 29.5898 66.166 30.1725 67.822C30.7552 69.4473 31.5832 70.904 32.6565 72.192C33.7298 73.4493 35.0025 74.4613 36.4745 75.228C37.9465 75.964 39.5872 76.332 41.3965 76.332C43.2365 76.332 44.9078 75.9333 46.4105 75.136C47.9132 74.3387 49.1858 73.296 50.2285 72.008C51.2712 70.72 52.0685 69.2633 52.6205 67.638C53.2032 66.0127 53.4945 64.3567 53.4945 62.67C53.4945 60.8913 53.1878 59.1893 52.5745 57.564C51.9918 55.908 51.1638 54.4513 50.0905 53.194C49.0172 51.9367 47.7445 50.94 46.2725 50.204C44.8005 49.4373 43.1752 49.054 41.3965 49.054C39.5565 49.054 37.8852 49.4527 36.3825 50.25C34.8798 51.0167 33.6072 52.044 32.5645 53.332C31.5218 54.62 30.7092 56.0767 30.1265 57.702C29.5745 59.3273 29.2985 60.9833 29.2985 62.67ZM68.0054 52.32V79H64.7854V46.34H67.2694L88.8894 73.526V46.386H92.1094V79H89.3034L68.0054 52.32ZM124.261 76.148V79H102.319V46.34H123.847V49.192H105.539V60.968H121.501V63.682H105.539V76.148H124.261ZM150.766 52.458C149.846 51.4153 148.619 50.572 147.086 49.928C145.553 49.284 143.805 48.962 141.842 48.962C138.959 48.962 136.859 49.514 135.54 50.618C134.221 51.6913 133.562 53.1633 133.562 55.034C133.562 56.0153 133.731 56.828 134.068 57.472C134.436 58.0853 134.988 58.622 135.724 59.082C136.46 59.542 137.395 59.9407 138.53 60.278C139.695 60.6153 141.06 60.9527 142.624 61.29C144.372 61.658 145.936 62.072 147.316 62.532C148.727 62.992 149.923 63.5747 150.904 64.28C151.885 64.9547 152.637 65.7827 153.158 66.764C153.679 67.7453 153.94 68.972 153.94 70.444C153.94 71.9467 153.649 73.25 153.066 74.354C152.483 75.458 151.671 76.378 150.628 77.114C149.585 77.85 148.343 78.402 146.902 78.77C145.461 79.1073 143.881 79.276 142.164 79.276C137.104 79.276 132.734 77.6967 129.054 74.538L130.664 71.916C131.247 72.5293 131.937 73.112 132.734 73.664C133.562 74.216 134.467 74.7067 135.448 75.136C136.46 75.5347 137.533 75.8567 138.668 76.102C139.803 76.3167 140.999 76.424 142.256 76.424C144.863 76.424 146.887 75.964 148.328 75.044C149.8 74.0933 150.536 72.6673 150.536 70.766C150.536 69.754 150.321 68.9107 149.892 68.236C149.493 67.5307 148.88 66.9327 148.052 66.442C147.224 65.9207 146.197 65.476 144.97 65.108C143.743 64.74 142.317 64.372 140.692 64.004C138.975 63.6053 137.472 63.1913 136.184 62.762C134.896 62.3327 133.807 61.796 132.918 61.152C132.029 60.508 131.354 59.7413 130.894 58.852C130.465 57.932 130.25 56.8127 130.25 55.494C130.25 53.9913 130.526 52.6573 131.078 51.492C131.661 50.296 132.473 49.3147 133.516 48.548C134.559 47.7507 135.785 47.1527 137.196 46.754C138.607 46.3247 140.171 46.11 141.888 46.11C144.065 46.11 145.997 46.4473 147.684 47.122C149.401 47.766 150.95 48.686 152.33 49.882L150.766 52.458Z" fill="#EB4D4B"/>
</svg>
